<mxfile host="app.diagrams.net" modified="2024-02-12T21:45:12.710Z" agent="Mozilla/5.0 (Windows NT 10.0; Win64; x64) AppleWebKit/537.36 (KHTML, like Gecko) Chrome/121.0.0.0 Safari/537.36" etag="UdjR69Cbjxbqf2_gr9Yc" version="23.1.2" type="device">
  <diagram name="Page-1" id="UNJYNQRmjYarsAAMGMSA">
    <mxGraphModel dx="880" dy="460" grid="1" gridSize="10" guides="1" tooltips="1" connect="1" arrows="1" fold="1" page="1" pageScale="1" pageWidth="850" pageHeight="1100" math="0" shadow="0">
      <root>
        <mxCell id="0" />
        <mxCell id="1" parent="0" />
        <mxCell id="tphIvj_pwLkxPa_8YD7f-2" value="" style="rounded=0;whiteSpace=wrap;html=1;" vertex="1" parent="1">
          <mxGeometry x="110" y="50" width="220" height="380" as="geometry" />
        </mxCell>
        <mxCell id="tphIvj_pwLkxPa_8YD7f-3" value="" style="rounded=0;whiteSpace=wrap;html=1;" vertex="1" parent="1">
          <mxGeometry x="380" y="50" width="220" height="380" as="geometry" />
        </mxCell>
        <mxCell id="tphIvj_pwLkxPa_8YD7f-4" value="Restaurant Name" style="rounded=0;whiteSpace=wrap;html=1;" vertex="1" parent="1">
          <mxGeometry x="150" y="100" width="120" height="60" as="geometry" />
        </mxCell>
        <mxCell id="tphIvj_pwLkxPa_8YD7f-5" value="&lt;br&gt;Name&lt;br&gt;Address&lt;br&gt;Phone Number&lt;br&gt;Link" style="rounded=1;whiteSpace=wrap;html=1;" vertex="1" parent="1">
          <mxGeometry x="150" y="230" width="120" height="80" as="geometry" />
        </mxCell>
        <mxCell id="tphIvj_pwLkxPa_8YD7f-6" value="View" style="rounded=1;whiteSpace=wrap;html=1;" vertex="1" parent="1">
          <mxGeometry x="165" y="350" width="90" height="30" as="geometry" />
        </mxCell>
        <mxCell id="tphIvj_pwLkxPa_8YD7f-7" value="Return" style="rounded=1;whiteSpace=wrap;html=1;" vertex="1" parent="1">
          <mxGeometry x="440" y="380" width="90" height="30" as="geometry" />
        </mxCell>
        <mxCell id="tphIvj_pwLkxPa_8YD7f-8" value="Menu Item&lt;br&gt;Image&lt;br&gt;Price" style="rounded=1;whiteSpace=wrap;html=1;" vertex="1" parent="1">
          <mxGeometry x="430" y="80" width="100" height="50" as="geometry" />
        </mxCell>
        <mxCell id="tphIvj_pwLkxPa_8YD7f-9" value="Menu Item&lt;br&gt;Image&lt;br&gt;Price" style="rounded=1;whiteSpace=wrap;html=1;" vertex="1" parent="1">
          <mxGeometry x="430" y="140" width="100" height="50" as="geometry" />
        </mxCell>
        <mxCell id="tphIvj_pwLkxPa_8YD7f-10" value="Menu Item&lt;br&gt;Image&lt;br&gt;Price" style="rounded=1;whiteSpace=wrap;html=1;" vertex="1" parent="1">
          <mxGeometry x="430" y="260" width="100" height="50" as="geometry" />
        </mxCell>
        <mxCell id="tphIvj_pwLkxPa_8YD7f-11" value="Menu Item&lt;br&gt;Image&lt;br&gt;Price" style="rounded=1;whiteSpace=wrap;html=1;" vertex="1" parent="1">
          <mxGeometry x="430" y="320" width="100" height="50" as="geometry" />
        </mxCell>
        <mxCell id="tphIvj_pwLkxPa_8YD7f-12" value="Menu Item&lt;br&gt;Image&lt;br&gt;Price" style="rounded=1;whiteSpace=wrap;html=1;" vertex="1" parent="1">
          <mxGeometry x="430" y="200" width="100" height="50" as="geometry" />
        </mxCell>
        <mxCell id="tphIvj_pwLkxPa_8YD7f-13" value="Menu" style="rounded=0;whiteSpace=wrap;html=1;" vertex="1" parent="1">
          <mxGeometry x="420" y="50" width="120" height="20" as="geometry" />
        </mxCell>
      </root>
    </mxGraphModel>
  </diagram>
</mxfile>
